<mxfile host="Electron" agent="Mozilla/5.0 (Windows NT 10.0; Win64; x64) AppleWebKit/537.36 (KHTML, like Gecko) draw.io/25.0.2 Chrome/128.0.6613.186 Electron/32.2.5 Safari/537.36" version="25.0.2">
  <diagram name="Page-1" id="J_-hmAHA3_6OpYe3ecje">
    <mxGraphModel dx="2976" dy="1706" grid="1" gridSize="10" guides="1" tooltips="1" connect="1" arrows="1" fold="1" page="1" pageScale="1" pageWidth="850" pageHeight="1100" math="0" shadow="0">
      <root>
        <mxCell id="0" />
        <mxCell id="1" parent="0" />
        <mxCell id="ZJhizyH1urfS170YYKo7-4" value="UC - Peripherals" style="swimlane;whiteSpace=wrap;html=1;fillColor=#FFFF99;" parent="1" vertex="1">
          <mxGeometry x="-680" y="937" width="920" height="343" as="geometry" />
        </mxCell>
        <mxCell id="ZJhizyH1urfS170YYKo7-84" value="&lt;font style=&quot;font-size: 18px;&quot;&gt;ADC&lt;/font&gt;" style="rounded=0;whiteSpace=wrap;html=1;fillColor=#ffcccc;strokeColor=#36393d;" parent="ZJhizyH1urfS170YYKo7-4" vertex="1">
          <mxGeometry x="50" y="23" width="110" height="320" as="geometry" />
        </mxCell>
        <mxCell id="ZJhizyH1urfS170YYKo7-90" value="&lt;font style=&quot;font-size: 18px;&quot;&gt;PWM&lt;/font&gt;" style="rounded=0;whiteSpace=wrap;html=1;fillColor=#cdeb8b;strokeColor=#36393d;" parent="ZJhizyH1urfS170YYKo7-4" vertex="1">
          <mxGeometry x="480" y="23" width="210" height="320" as="geometry" />
        </mxCell>
        <mxCell id="ZJhizyH1urfS170YYKo7-91" value="&lt;b&gt;&lt;font style=&quot;font-size: 24px;&quot;&gt;CPU&lt;/font&gt;&lt;/b&gt;" style="whiteSpace=wrap;html=1;aspect=fixed;fillColor=#cce5ff;strokeColor=#36393d;" parent="ZJhizyH1urfS170YYKo7-4" vertex="1">
          <mxGeometry x="200" y="23" width="237" height="237" as="geometry" />
        </mxCell>
        <mxCell id="ZJhizyH1urfS170YYKo7-2" value="APPLICATION - SW" style="swimlane;whiteSpace=wrap;html=1;fillColor=#E6FFCC;startSize=23;" parent="1" vertex="1">
          <mxGeometry x="-790" y="-170" width="1000" height="1060" as="geometry">
            <mxRectangle x="-970" y="-450" width="120" height="30" as="alternateBounds" />
          </mxGeometry>
        </mxCell>
        <mxCell id="ZJhizyH1urfS170YYKo7-115" style="edgeStyle=orthogonalEdgeStyle;rounded=0;orthogonalLoop=1;jettySize=auto;html=1;entryX=0.5;entryY=1;entryDx=0;entryDy=0;" parent="ZJhizyH1urfS170YYKo7-2" source="ZJhizyH1urfS170YYKo7-99" target="ZJhizyH1urfS170YYKo7-109" edge="1">
          <mxGeometry relative="1" as="geometry" />
        </mxCell>
        <mxCell id="ZJhizyH1urfS170YYKo7-120" value="Iv" style="edgeLabel;html=1;align=center;verticalAlign=middle;resizable=0;points=[];" parent="ZJhizyH1urfS170YYKo7-115" vertex="1" connectable="0">
          <mxGeometry x="0.0133" y="-1" relative="1" as="geometry">
            <mxPoint as="offset" />
          </mxGeometry>
        </mxCell>
        <mxCell id="ZJhizyH1urfS170YYKo7-116" style="edgeStyle=orthogonalEdgeStyle;rounded=0;orthogonalLoop=1;jettySize=auto;html=1;entryX=0.5;entryY=1;entryDx=0;entryDy=0;" parent="ZJhizyH1urfS170YYKo7-2" edge="1">
          <mxGeometry relative="1" as="geometry">
            <mxPoint x="120" y="865" as="sourcePoint" />
            <mxPoint x="120" y="820" as="targetPoint" />
          </mxGeometry>
        </mxCell>
        <mxCell id="ZJhizyH1urfS170YYKo7-121" value="Iu" style="edgeLabel;html=1;align=center;verticalAlign=middle;resizable=0;points=[];" parent="ZJhizyH1urfS170YYKo7-116" vertex="1" connectable="0">
          <mxGeometry x="-0.0904" relative="1" as="geometry">
            <mxPoint as="offset" />
          </mxGeometry>
        </mxCell>
        <mxCell id="ZJhizyH1urfS170YYKo7-117" style="edgeStyle=orthogonalEdgeStyle;rounded=0;orthogonalLoop=1;jettySize=auto;html=1;" parent="ZJhizyH1urfS170YYKo7-2" edge="1">
          <mxGeometry relative="1" as="geometry">
            <mxPoint x="180" y="820" as="targetPoint" />
            <mxPoint x="180" y="865" as="sourcePoint" />
          </mxGeometry>
        </mxCell>
        <mxCell id="ZJhizyH1urfS170YYKo7-118" value="Iw" style="edgeLabel;html=1;align=center;verticalAlign=middle;resizable=0;points=[];" parent="ZJhizyH1urfS170YYKo7-117" vertex="1" connectable="0">
          <mxGeometry x="-0.0015" y="-1" relative="1" as="geometry">
            <mxPoint as="offset" />
          </mxGeometry>
        </mxCell>
        <mxCell id="ZJhizyH1urfS170YYKo7-128" style="edgeStyle=orthogonalEdgeStyle;rounded=0;orthogonalLoop=1;jettySize=auto;html=1;entryX=1;entryY=0.5;entryDx=0;entryDy=0;" parent="ZJhizyH1urfS170YYKo7-2" source="ZJhizyH1urfS170YYKo7-99" target="ZJhizyH1urfS170YYKo7-100" edge="1">
          <mxGeometry relative="1" as="geometry">
            <Array as="points">
              <mxPoint x="230" y="890" />
              <mxPoint x="230" y="698" />
            </Array>
          </mxGeometry>
        </mxCell>
        <mxCell id="ZJhizyH1urfS170YYKo7-129" value="theta" style="edgeLabel;html=1;align=center;verticalAlign=middle;resizable=0;points=[];" parent="ZJhizyH1urfS170YYKo7-128" vertex="1" connectable="0">
          <mxGeometry x="0.0303" y="-2" relative="1" as="geometry">
            <mxPoint x="18" y="-50" as="offset" />
          </mxGeometry>
        </mxCell>
        <mxCell id="h_LfdrFFlOwhUh25yJzW-2" style="edgeStyle=orthogonalEdgeStyle;rounded=0;orthogonalLoop=1;jettySize=auto;html=1;entryX=0;entryY=0.5;entryDx=0;entryDy=0;" edge="1" parent="ZJhizyH1urfS170YYKo7-2" source="ZJhizyH1urfS170YYKo7-99" target="h_LfdrFFlOwhUh25yJzW-4">
          <mxGeometry relative="1" as="geometry">
            <mxPoint x="230" y="650" as="targetPoint" />
            <Array as="points">
              <mxPoint x="230" y="890" />
              <mxPoint x="230" y="625" />
            </Array>
          </mxGeometry>
        </mxCell>
        <mxCell id="ZJhizyH1urfS170YYKo7-99" value="ADC SW&lt;div&gt;RAW -&amp;gt; Filtered&lt;/div&gt;" style="rounded=0;whiteSpace=wrap;html=1;" parent="ZJhizyH1urfS170YYKo7-2" vertex="1">
          <mxGeometry x="90" y="865" width="120" height="40" as="geometry" />
        </mxCell>
        <mxCell id="ZJhizyH1urfS170YYKo7-130" style="edgeStyle=orthogonalEdgeStyle;rounded=0;orthogonalLoop=1;jettySize=auto;html=1;" parent="ZJhizyH1urfS170YYKo7-2" edge="1">
          <mxGeometry relative="1" as="geometry">
            <mxPoint x="120" y="550" as="targetPoint" />
            <mxPoint x="119" y="675" as="sourcePoint" />
          </mxGeometry>
        </mxCell>
        <mxCell id="ZJhizyH1urfS170YYKo7-133" value="Id" style="edgeLabel;html=1;align=center;verticalAlign=middle;resizable=0;points=[];" parent="ZJhizyH1urfS170YYKo7-130" vertex="1" connectable="0">
          <mxGeometry x="-0.145" y="-2" relative="1" as="geometry">
            <mxPoint as="offset" />
          </mxGeometry>
        </mxCell>
        <mxCell id="ZJhizyH1urfS170YYKo7-131" style="edgeStyle=orthogonalEdgeStyle;rounded=0;orthogonalLoop=1;jettySize=auto;html=1;" parent="ZJhizyH1urfS170YYKo7-2" edge="1">
          <mxGeometry relative="1" as="geometry">
            <mxPoint x="180" y="550" as="targetPoint" />
            <mxPoint x="181" y="675" as="sourcePoint" />
          </mxGeometry>
        </mxCell>
        <mxCell id="ZJhizyH1urfS170YYKo7-132" value="Iq" style="edgeLabel;html=1;align=center;verticalAlign=middle;resizable=0;points=[];" parent="ZJhizyH1urfS170YYKo7-131" vertex="1" connectable="0">
          <mxGeometry x="-0.2448" y="1" relative="1" as="geometry">
            <mxPoint as="offset" />
          </mxGeometry>
        </mxCell>
        <mxCell id="ZJhizyH1urfS170YYKo7-100" value="Park Transf." style="rounded=0;whiteSpace=wrap;html=1;" parent="ZJhizyH1urfS170YYKo7-2" vertex="1">
          <mxGeometry x="90" y="675" width="120" height="45" as="geometry" />
        </mxCell>
        <mxCell id="ZJhizyH1urfS170YYKo7-123" style="edgeStyle=orthogonalEdgeStyle;rounded=0;orthogonalLoop=1;jettySize=auto;html=1;entryX=0.5;entryY=1;entryDx=0;entryDy=0;exitX=0.25;exitY=0;exitDx=0;exitDy=0;" parent="ZJhizyH1urfS170YYKo7-2" source="ZJhizyH1urfS170YYKo7-109" edge="1">
          <mxGeometry relative="1" as="geometry">
            <mxPoint x="119" y="760" as="sourcePoint" />
            <mxPoint x="119" y="720" as="targetPoint" />
            <Array as="points">
              <mxPoint x="119" y="760" />
            </Array>
          </mxGeometry>
        </mxCell>
        <mxCell id="ZJhizyH1urfS170YYKo7-125" value="Ialpha" style="edgeLabel;html=1;align=center;verticalAlign=middle;resizable=0;points=[];" parent="ZJhizyH1urfS170YYKo7-123" vertex="1" connectable="0">
          <mxGeometry x="0.0283" y="1" relative="1" as="geometry">
            <mxPoint as="offset" />
          </mxGeometry>
        </mxCell>
        <mxCell id="ZJhizyH1urfS170YYKo7-124" style="edgeStyle=orthogonalEdgeStyle;rounded=0;orthogonalLoop=1;jettySize=auto;html=1;entryX=0.5;entryY=1;entryDx=0;entryDy=0;" parent="ZJhizyH1urfS170YYKo7-2" edge="1">
          <mxGeometry relative="1" as="geometry">
            <mxPoint x="179" y="760" as="sourcePoint" />
            <mxPoint x="179" y="720" as="targetPoint" />
            <Array as="points">
              <mxPoint x="179" y="740" />
              <mxPoint x="180" y="740" />
              <mxPoint x="179" y="741" />
            </Array>
          </mxGeometry>
        </mxCell>
        <mxCell id="ZJhizyH1urfS170YYKo7-126" value="Ibeta" style="edgeLabel;html=1;align=center;verticalAlign=middle;resizable=0;points=[];" parent="ZJhizyH1urfS170YYKo7-124" vertex="1" connectable="0">
          <mxGeometry x="-0.0984" y="2" relative="1" as="geometry">
            <mxPoint as="offset" />
          </mxGeometry>
        </mxCell>
        <mxCell id="ZJhizyH1urfS170YYKo7-109" value="CLARK Transf." style="whiteSpace=wrap;html=1;rounded=0;" parent="ZJhizyH1urfS170YYKo7-2" vertex="1">
          <mxGeometry x="90" y="760" width="120" height="60" as="geometry" />
        </mxCell>
        <mxCell id="ZJhizyH1urfS170YYKo7-137" style="edgeStyle=orthogonalEdgeStyle;rounded=0;orthogonalLoop=1;jettySize=auto;html=1;entryX=0.25;entryY=0;entryDx=0;entryDy=0;" parent="ZJhizyH1urfS170YYKo7-2" source="ZJhizyH1urfS170YYKo7-136" target="ZJhizyH1urfS170YYKo7-141" edge="1">
          <mxGeometry relative="1" as="geometry">
            <mxPoint x="1088" y="335" as="targetPoint" />
            <Array as="points">
              <mxPoint x="613" y="560" />
              <mxPoint x="613" y="560" />
            </Array>
          </mxGeometry>
        </mxCell>
        <mxCell id="ZJhizyH1urfS170YYKo7-140" value="Vq" style="edgeLabel;html=1;align=center;verticalAlign=middle;resizable=0;points=[];" parent="ZJhizyH1urfS170YYKo7-137" vertex="1" connectable="0">
          <mxGeometry x="-0.0827" y="2" relative="1" as="geometry">
            <mxPoint as="offset" />
          </mxGeometry>
        </mxCell>
        <mxCell id="ZJhizyH1urfS170YYKo7-136" value="Controller" style="swimlane;whiteSpace=wrap;html=1;" parent="ZJhizyH1urfS170YYKo7-2" vertex="1">
          <mxGeometry x="30" y="130" width="800" height="420" as="geometry" />
        </mxCell>
        <mxCell id="h_LfdrFFlOwhUh25yJzW-11" style="edgeStyle=orthogonalEdgeStyle;rounded=0;orthogonalLoop=1;jettySize=auto;html=1;" edge="1" parent="ZJhizyH1urfS170YYKo7-136" source="h_LfdrFFlOwhUh25yJzW-8" target="h_LfdrFFlOwhUh25yJzW-9">
          <mxGeometry relative="1" as="geometry" />
        </mxCell>
        <mxCell id="h_LfdrFFlOwhUh25yJzW-15" value="ref Tq" style="edgeLabel;html=1;align=center;verticalAlign=middle;resizable=0;points=[];" vertex="1" connectable="0" parent="h_LfdrFFlOwhUh25yJzW-11">
          <mxGeometry x="0.2715" y="-3" relative="1" as="geometry">
            <mxPoint x="-42" y="-23" as="offset" />
          </mxGeometry>
        </mxCell>
        <mxCell id="h_LfdrFFlOwhUh25yJzW-8" value="Speed Control" style="whiteSpace=wrap;html=1;" vertex="1" parent="ZJhizyH1urfS170YYKo7-136">
          <mxGeometry x="170" y="70" width="120" height="60" as="geometry" />
        </mxCell>
        <mxCell id="h_LfdrFFlOwhUh25yJzW-12" style="edgeStyle=orthogonalEdgeStyle;rounded=0;orthogonalLoop=1;jettySize=auto;html=1;entryX=0.5;entryY=0;entryDx=0;entryDy=0;" edge="1" parent="ZJhizyH1urfS170YYKo7-136" source="h_LfdrFFlOwhUh25yJzW-9" target="h_LfdrFFlOwhUh25yJzW-10">
          <mxGeometry relative="1" as="geometry" />
        </mxCell>
        <mxCell id="h_LfdrFFlOwhUh25yJzW-9" value="Torque Control" style="whiteSpace=wrap;html=1;" vertex="1" parent="ZJhizyH1urfS170YYKo7-136">
          <mxGeometry x="397" y="70" width="120" height="60" as="geometry" />
        </mxCell>
        <mxCell id="h_LfdrFFlOwhUh25yJzW-16" style="edgeStyle=orthogonalEdgeStyle;rounded=0;orthogonalLoop=1;jettySize=auto;html=1;" edge="1" parent="ZJhizyH1urfS170YYKo7-136" source="h_LfdrFFlOwhUh25yJzW-10">
          <mxGeometry relative="1" as="geometry">
            <mxPoint x="580" y="420" as="targetPoint" />
          </mxGeometry>
        </mxCell>
        <mxCell id="h_LfdrFFlOwhUh25yJzW-17" style="edgeStyle=orthogonalEdgeStyle;rounded=0;orthogonalLoop=1;jettySize=auto;html=1;" edge="1" parent="ZJhizyH1urfS170YYKo7-136" source="h_LfdrFFlOwhUh25yJzW-10">
          <mxGeometry relative="1" as="geometry">
            <mxPoint x="670" y="420" as="targetPoint" />
          </mxGeometry>
        </mxCell>
        <mxCell id="h_LfdrFFlOwhUh25yJzW-10" value="Current control" style="whiteSpace=wrap;html=1;" vertex="1" parent="ZJhizyH1urfS170YYKo7-136">
          <mxGeometry x="560" y="230" width="120" height="60" as="geometry" />
        </mxCell>
        <mxCell id="ZJhizyH1urfS170YYKo7-148" style="edgeStyle=orthogonalEdgeStyle;rounded=0;orthogonalLoop=1;jettySize=auto;html=1;entryX=0.5;entryY=0;entryDx=0;entryDy=0;" parent="ZJhizyH1urfS170YYKo7-2" edge="1">
          <mxGeometry relative="1" as="geometry">
            <mxPoint x="628" y="673" as="sourcePoint" />
            <mxPoint x="628" y="750" as="targetPoint" />
          </mxGeometry>
        </mxCell>
        <mxCell id="ZJhizyH1urfS170YYKo7-151" value="Valpha" style="edgeLabel;html=1;align=center;verticalAlign=middle;resizable=0;points=[];" parent="ZJhizyH1urfS170YYKo7-148" vertex="1" connectable="0">
          <mxGeometry x="-0.1481" y="-2" relative="1" as="geometry">
            <mxPoint as="offset" />
          </mxGeometry>
        </mxCell>
        <mxCell id="ZJhizyH1urfS170YYKo7-149" style="edgeStyle=orthogonalEdgeStyle;rounded=0;orthogonalLoop=1;jettySize=auto;html=1;exitX=0.5;exitY=1;exitDx=0;exitDy=0;" parent="ZJhizyH1urfS170YYKo7-2" edge="1">
          <mxGeometry relative="1" as="geometry">
            <mxPoint x="708" y="673" as="sourcePoint" />
            <mxPoint x="708" y="750" as="targetPoint" />
          </mxGeometry>
        </mxCell>
        <mxCell id="ZJhizyH1urfS170YYKo7-150" value="Vbeta" style="edgeLabel;html=1;align=center;verticalAlign=middle;resizable=0;points=[];" parent="ZJhizyH1urfS170YYKo7-149" vertex="1" connectable="0">
          <mxGeometry x="-0.1481" y="4" relative="1" as="geometry">
            <mxPoint as="offset" />
          </mxGeometry>
        </mxCell>
        <mxCell id="ZJhizyH1urfS170YYKo7-141" value="Inverse&amp;nbsp;&lt;div&gt;Park Transf&lt;/div&gt;" style="rounded=0;whiteSpace=wrap;html=1;" parent="ZJhizyH1urfS170YYKo7-2" vertex="1">
          <mxGeometry x="550" y="603" width="250" height="70" as="geometry" />
        </mxCell>
        <mxCell id="ZJhizyH1urfS170YYKo7-144" style="edgeStyle=orthogonalEdgeStyle;rounded=0;orthogonalLoop=1;jettySize=auto;html=1;entryX=0.589;entryY=0.031;entryDx=0;entryDy=0;entryPerimeter=0;" parent="ZJhizyH1urfS170YYKo7-2" source="ZJhizyH1urfS170YYKo7-136" target="ZJhizyH1urfS170YYKo7-141" edge="1">
          <mxGeometry relative="1" as="geometry">
            <Array as="points">
              <mxPoint x="697" y="605" />
              <mxPoint x="697" y="605" />
            </Array>
          </mxGeometry>
        </mxCell>
        <mxCell id="ZJhizyH1urfS170YYKo7-145" value="Vd" style="edgeLabel;html=1;align=center;verticalAlign=middle;resizable=0;points=[];" parent="ZJhizyH1urfS170YYKo7-144" vertex="1" connectable="0">
          <mxGeometry x="-0.2022" y="2" relative="1" as="geometry">
            <mxPoint as="offset" />
          </mxGeometry>
        </mxCell>
        <mxCell id="ZJhizyH1urfS170YYKo7-146" value="SVM&amp;nbsp;&lt;div&gt;Muldation&lt;/div&gt;&lt;div&gt;PWM&lt;/div&gt;" style="rounded=0;whiteSpace=wrap;html=1;" parent="ZJhizyH1urfS170YYKo7-2" vertex="1">
          <mxGeometry x="550" y="750" width="250" height="160" as="geometry" />
        </mxCell>
        <mxCell id="ZJhizyH1urfS170YYKo7-154" style="edgeStyle=orthogonalEdgeStyle;rounded=0;orthogonalLoop=1;jettySize=auto;html=1;" parent="ZJhizyH1urfS170YYKo7-2" edge="1">
          <mxGeometry relative="1" as="geometry">
            <mxPoint x="690" y="910" as="sourcePoint" />
            <mxPoint x="690" y="1130" as="targetPoint" />
            <Array as="points">
              <mxPoint x="690" y="1070" />
              <mxPoint x="690" y="1070" />
            </Array>
          </mxGeometry>
        </mxCell>
        <mxCell id="ZJhizyH1urfS170YYKo7-155" style="edgeStyle=orthogonalEdgeStyle;rounded=0;orthogonalLoop=1;jettySize=auto;html=1;" parent="ZJhizyH1urfS170YYKo7-2" edge="1">
          <mxGeometry relative="1" as="geometry">
            <mxPoint x="700" y="910" as="sourcePoint" />
            <mxPoint x="700" y="1130" as="targetPoint" />
            <Array as="points">
              <mxPoint x="700" y="1070" />
              <mxPoint x="700" y="1070" />
            </Array>
          </mxGeometry>
        </mxCell>
        <mxCell id="ZJhizyH1urfS170YYKo7-156" style="edgeStyle=orthogonalEdgeStyle;rounded=0;orthogonalLoop=1;jettySize=auto;html=1;" parent="ZJhizyH1urfS170YYKo7-2" edge="1">
          <mxGeometry relative="1" as="geometry">
            <mxPoint x="710" y="910" as="sourcePoint" />
            <mxPoint x="710" y="1130" as="targetPoint" />
            <Array as="points">
              <mxPoint x="710" y="1070" />
              <mxPoint x="710" y="1070" />
            </Array>
          </mxGeometry>
        </mxCell>
        <mxCell id="ZJhizyH1urfS170YYKo7-191" style="edgeStyle=orthogonalEdgeStyle;rounded=0;orthogonalLoop=1;jettySize=auto;html=1;" parent="ZJhizyH1urfS170YYKo7-2" edge="1">
          <mxGeometry relative="1" as="geometry">
            <mxPoint x="720" y="910" as="sourcePoint" />
            <mxPoint x="720" y="1130" as="targetPoint" />
            <Array as="points">
              <mxPoint x="720" y="1070" />
              <mxPoint x="720" y="1070" />
            </Array>
          </mxGeometry>
        </mxCell>
        <mxCell id="ZJhizyH1urfS170YYKo7-192" style="edgeStyle=orthogonalEdgeStyle;rounded=0;orthogonalLoop=1;jettySize=auto;html=1;" parent="ZJhizyH1urfS170YYKo7-2" edge="1">
          <mxGeometry relative="1" as="geometry">
            <mxPoint x="730" y="910" as="sourcePoint" />
            <mxPoint x="730" y="1130" as="targetPoint" />
            <Array as="points">
              <mxPoint x="730" y="1070" />
              <mxPoint x="730" y="1070" />
            </Array>
          </mxGeometry>
        </mxCell>
        <mxCell id="ZJhizyH1urfS170YYKo7-152" style="edgeStyle=orthogonalEdgeStyle;rounded=0;orthogonalLoop=1;jettySize=auto;html=1;" parent="ZJhizyH1urfS170YYKo7-2" edge="1">
          <mxGeometry relative="1" as="geometry">
            <mxPoint x="679.9999999999995" y="910" as="sourcePoint" />
            <mxPoint x="679.9999999999995" y="1130" as="targetPoint" />
            <Array as="points">
              <mxPoint x="680" y="1070" />
              <mxPoint x="680" y="1070" />
            </Array>
          </mxGeometry>
        </mxCell>
        <mxCell id="h_LfdrFFlOwhUh25yJzW-5" style="edgeStyle=orthogonalEdgeStyle;rounded=0;orthogonalLoop=1;jettySize=auto;html=1;entryX=0.25;entryY=1;entryDx=0;entryDy=0;" edge="1" parent="ZJhizyH1urfS170YYKo7-2" source="h_LfdrFFlOwhUh25yJzW-4" target="ZJhizyH1urfS170YYKo7-136">
          <mxGeometry relative="1" as="geometry">
            <mxPoint x="230" y="570" as="targetPoint" />
            <Array as="points">
              <mxPoint x="230" y="625" />
            </Array>
          </mxGeometry>
        </mxCell>
        <mxCell id="h_LfdrFFlOwhUh25yJzW-6" style="edgeStyle=orthogonalEdgeStyle;rounded=0;orthogonalLoop=1;jettySize=auto;html=1;" edge="1" parent="ZJhizyH1urfS170YYKo7-2" source="h_LfdrFFlOwhUh25yJzW-4">
          <mxGeometry relative="1" as="geometry">
            <mxPoint x="295" y="550" as="targetPoint" />
          </mxGeometry>
        </mxCell>
        <mxCell id="h_LfdrFFlOwhUh25yJzW-7" value="spd_act" style="edgeLabel;html=1;align=center;verticalAlign=middle;resizable=0;points=[];" vertex="1" connectable="0" parent="h_LfdrFFlOwhUh25yJzW-6">
          <mxGeometry x="0.0661" y="3" relative="1" as="geometry">
            <mxPoint as="offset" />
          </mxGeometry>
        </mxCell>
        <mxCell id="h_LfdrFFlOwhUh25yJzW-4" value="Speed Act" style="whiteSpace=wrap;html=1;" vertex="1" parent="ZJhizyH1urfS170YYKo7-2">
          <mxGeometry x="250" y="610" width="90" height="30" as="geometry" />
        </mxCell>
        <mxCell id="ZJhizyH1urfS170YYKo7-5" value="HARDWARE - SYSTEMS" style="swimlane;whiteSpace=wrap;html=1;fillColor=#FF9999;" parent="1" vertex="1">
          <mxGeometry x="-810" y="1310" width="960" height="330" as="geometry" />
        </mxCell>
        <mxCell id="ZJhizyH1urfS170YYKo7-57" style="edgeStyle=orthogonalEdgeStyle;rounded=0;orthogonalLoop=1;jettySize=auto;html=1;exitX=1;exitY=0.25;exitDx=0;exitDy=0;" parent="ZJhizyH1urfS170YYKo7-5" edge="1">
          <mxGeometry relative="1" as="geometry">
            <mxPoint x="700" y="128.30000000000018" as="targetPoint" />
            <mxPoint x="390" y="128" as="sourcePoint" />
          </mxGeometry>
        </mxCell>
        <mxCell id="ZJhizyH1urfS170YYKo7-45" value="STM32F407VET6" style="swimlane;whiteSpace=wrap;html=1;" parent="ZJhizyH1urfS170YYKo7-5" vertex="1">
          <mxGeometry x="270" y="78" width="120" height="190" as="geometry">
            <mxRectangle x="370" y="160" width="140" height="30" as="alternateBounds" />
          </mxGeometry>
        </mxCell>
        <mxCell id="h_LfdrFFlOwhUh25yJzW-1" value="" style="endArrow=open;endSize=12;dashed=1;html=1;rounded=0;fillColor=#ffcccc;strokeColor=#36393d;entryX=0.5;entryY=1;entryDx=0;entryDy=0;" edge="1" parent="ZJhizyH1urfS170YYKo7-45" target="ZJhizyH1urfS170YYKo7-84">
          <mxGeometry width="160" relative="1" as="geometry">
            <mxPoint x="310" y="215" as="sourcePoint" />
            <mxPoint x="-150" y="-55" as="targetPoint" />
          </mxGeometry>
        </mxCell>
        <mxCell id="ZJhizyH1urfS170YYKo7-53" style="edgeStyle=orthogonalEdgeStyle;rounded=0;orthogonalLoop=1;jettySize=auto;html=1;" parent="ZJhizyH1urfS170YYKo7-5" source="ZJhizyH1urfS170YYKo7-52" edge="1">
          <mxGeometry relative="1" as="geometry">
            <mxPoint x="270" y="118" as="targetPoint" />
            <Array as="points">
              <mxPoint x="60" y="118" />
            </Array>
          </mxGeometry>
        </mxCell>
        <mxCell id="ZJhizyH1urfS170YYKo7-70" style="edgeStyle=orthogonalEdgeStyle;rounded=0;orthogonalLoop=1;jettySize=auto;html=1;exitX=1;exitY=0.25;exitDx=0;exitDy=0;entryX=0;entryY=0.25;entryDx=0;entryDy=0;" parent="ZJhizyH1urfS170YYKo7-5" source="ZJhizyH1urfS170YYKo7-52" target="ZJhizyH1urfS170YYKo7-55" edge="1">
          <mxGeometry relative="1" as="geometry">
            <Array as="points">
              <mxPoint x="110" y="58" />
              <mxPoint x="650" y="58" />
              <mxPoint x="650" y="108" />
            </Array>
          </mxGeometry>
        </mxCell>
        <mxCell id="ZJhizyH1urfS170YYKo7-52" value="PowerSupply" style="swimlane;whiteSpace=wrap;html=1;" parent="ZJhizyH1urfS170YYKo7-5" vertex="1">
          <mxGeometry y="23" width="100" height="140" as="geometry" />
        </mxCell>
        <mxCell id="ZJhizyH1urfS170YYKo7-73" style="edgeStyle=orthogonalEdgeStyle;rounded=0;orthogonalLoop=1;jettySize=auto;html=1;entryX=0.5;entryY=1;entryDx=0;entryDy=0;" parent="ZJhizyH1urfS170YYKo7-5" source="ZJhizyH1urfS170YYKo7-54" target="ZJhizyH1urfS170YYKo7-45" edge="1">
          <mxGeometry relative="1" as="geometry">
            <Array as="points">
              <mxPoint x="905" y="298" />
              <mxPoint x="330" y="298" />
            </Array>
          </mxGeometry>
        </mxCell>
        <mxCell id="ZJhizyH1urfS170YYKo7-74" value="theta" style="edgeLabel;html=1;align=center;verticalAlign=middle;resizable=0;points=[];" parent="ZJhizyH1urfS170YYKo7-73" vertex="1" connectable="0">
          <mxGeometry x="0.1265" y="2" relative="1" as="geometry">
            <mxPoint y="8" as="offset" />
          </mxGeometry>
        </mxCell>
        <mxCell id="ZJhizyH1urfS170YYKo7-54" value="BLDC MOTOR" style="swimlane;whiteSpace=wrap;html=1;" parent="ZJhizyH1urfS170YYKo7-5" vertex="1">
          <mxGeometry x="850" y="78" width="110" height="190" as="geometry" />
        </mxCell>
        <mxCell id="ZJhizyH1urfS170YYKo7-58" style="edgeStyle=orthogonalEdgeStyle;rounded=0;orthogonalLoop=1;jettySize=auto;html=1;" parent="ZJhizyH1urfS170YYKo7-5" edge="1">
          <mxGeometry relative="1" as="geometry">
            <mxPoint x="850" y="137.75" as="targetPoint" />
            <mxPoint x="770.0000000000002" y="137.75" as="sourcePoint" />
          </mxGeometry>
        </mxCell>
        <mxCell id="ZJhizyH1urfS170YYKo7-63" value="V" style="edgeLabel;html=1;align=center;verticalAlign=middle;resizable=0;points=[];" parent="ZJhizyH1urfS170YYKo7-58" vertex="1" connectable="0">
          <mxGeometry x="-0.1739" y="1" relative="1" as="geometry">
            <mxPoint y="11" as="offset" />
          </mxGeometry>
        </mxCell>
        <mxCell id="ZJhizyH1urfS170YYKo7-59" style="edgeStyle=orthogonalEdgeStyle;rounded=0;orthogonalLoop=1;jettySize=auto;html=1;exitX=1;exitY=0.75;exitDx=0;exitDy=0;" parent="ZJhizyH1urfS170YYKo7-5" source="ZJhizyH1urfS170YYKo7-55" edge="1">
          <mxGeometry relative="1" as="geometry">
            <mxPoint x="850" y="168" as="targetPoint" />
          </mxGeometry>
        </mxCell>
        <mxCell id="ZJhizyH1urfS170YYKo7-64" value="W" style="edgeLabel;html=1;align=center;verticalAlign=middle;resizable=0;points=[];" parent="ZJhizyH1urfS170YYKo7-59" vertex="1" connectable="0">
          <mxGeometry x="-0.0668" y="-1" relative="1" as="geometry">
            <mxPoint x="-4" y="9" as="offset" />
          </mxGeometry>
        </mxCell>
        <mxCell id="ZJhizyH1urfS170YYKo7-61" style="edgeStyle=orthogonalEdgeStyle;rounded=0;orthogonalLoop=1;jettySize=auto;html=1;exitX=1;exitY=0.25;exitDx=0;exitDy=0;" parent="ZJhizyH1urfS170YYKo7-5" source="ZJhizyH1urfS170YYKo7-55" edge="1">
          <mxGeometry relative="1" as="geometry">
            <mxPoint x="850" y="108" as="targetPoint" />
          </mxGeometry>
        </mxCell>
        <mxCell id="ZJhizyH1urfS170YYKo7-62" value="U" style="edgeLabel;html=1;align=center;verticalAlign=middle;resizable=0;points=[];" parent="ZJhizyH1urfS170YYKo7-61" vertex="1" connectable="0">
          <mxGeometry x="-0.2421" relative="1" as="geometry">
            <mxPoint x="2" y="10" as="offset" />
          </mxGeometry>
        </mxCell>
        <mxCell id="ZJhizyH1urfS170YYKo7-55" value="INVERTER" style="swimlane;whiteSpace=wrap;html=1;" parent="ZJhizyH1urfS170YYKo7-5" vertex="1">
          <mxGeometry x="700" y="78" width="70" height="120" as="geometry" />
        </mxCell>
        <mxCell id="ZJhizyH1urfS170YYKo7-65" style="edgeStyle=orthogonalEdgeStyle;rounded=0;orthogonalLoop=1;jettySize=auto;html=1;exitX=1;exitY=0.25;exitDx=0;exitDy=0;" parent="ZJhizyH1urfS170YYKo7-5" edge="1">
          <mxGeometry relative="1" as="geometry">
            <mxPoint x="700" y="137.6500000000001" as="targetPoint" />
            <mxPoint x="390" y="137.8499999999999" as="sourcePoint" />
          </mxGeometry>
        </mxCell>
        <mxCell id="ZJhizyH1urfS170YYKo7-66" style="edgeStyle=orthogonalEdgeStyle;rounded=0;orthogonalLoop=1;jettySize=auto;html=1;exitX=1;exitY=0.25;exitDx=0;exitDy=0;" parent="ZJhizyH1urfS170YYKo7-5" edge="1">
          <mxGeometry relative="1" as="geometry">
            <mxPoint x="700" y="147.6500000000001" as="targetPoint" />
            <mxPoint x="390" y="147.8499999999999" as="sourcePoint" />
          </mxGeometry>
        </mxCell>
        <mxCell id="ZJhizyH1urfS170YYKo7-67" style="edgeStyle=orthogonalEdgeStyle;rounded=0;orthogonalLoop=1;jettySize=auto;html=1;exitX=1;exitY=0.25;exitDx=0;exitDy=0;" parent="ZJhizyH1urfS170YYKo7-5" edge="1">
          <mxGeometry relative="1" as="geometry">
            <mxPoint x="700" y="157.6500000000001" as="targetPoint" />
            <mxPoint x="390" y="157.8499999999999" as="sourcePoint" />
          </mxGeometry>
        </mxCell>
        <mxCell id="ZJhizyH1urfS170YYKo7-68" style="edgeStyle=orthogonalEdgeStyle;rounded=0;orthogonalLoop=1;jettySize=auto;html=1;exitX=1;exitY=0.25;exitDx=0;exitDy=0;" parent="ZJhizyH1urfS170YYKo7-5" edge="1">
          <mxGeometry relative="1" as="geometry">
            <mxPoint x="700" y="167.6500000000001" as="targetPoint" />
            <mxPoint x="390" y="167.8499999999999" as="sourcePoint" />
          </mxGeometry>
        </mxCell>
        <mxCell id="ZJhizyH1urfS170YYKo7-69" style="edgeStyle=orthogonalEdgeStyle;rounded=0;orthogonalLoop=1;jettySize=auto;html=1;exitX=1;exitY=0.25;exitDx=0;exitDy=0;" parent="ZJhizyH1urfS170YYKo7-5" edge="1">
          <mxGeometry relative="1" as="geometry">
            <mxPoint x="700" y="177.6500000000001" as="targetPoint" />
            <mxPoint x="390" y="177.8499999999999" as="sourcePoint" />
          </mxGeometry>
        </mxCell>
        <mxCell id="ZJhizyH1urfS170YYKo7-78" style="edgeStyle=orthogonalEdgeStyle;rounded=0;orthogonalLoop=1;jettySize=auto;html=1;" parent="ZJhizyH1urfS170YYKo7-5" source="ZJhizyH1urfS170YYKo7-75" edge="1">
          <mxGeometry relative="1" as="geometry">
            <mxPoint x="390" y="248" as="targetPoint" />
          </mxGeometry>
        </mxCell>
        <mxCell id="ZJhizyH1urfS170YYKo7-80" value="Iu, Iv" style="edgeLabel;html=1;align=center;verticalAlign=middle;resizable=0;points=[];" parent="ZJhizyH1urfS170YYKo7-78" vertex="1" connectable="0">
          <mxGeometry x="-0.4045" y="1" relative="1" as="geometry">
            <mxPoint x="-24" y="-11" as="offset" />
          </mxGeometry>
        </mxCell>
        <mxCell id="ZJhizyH1urfS170YYKo7-75" value="I - Sensor" style="swimlane;whiteSpace=wrap;html=1;" parent="ZJhizyH1urfS170YYKo7-5" vertex="1">
          <mxGeometry x="695" y="208" width="75" height="80" as="geometry" />
        </mxCell>
        <mxCell id="ZJhizyH1urfS170YYKo7-77" value="" style="endArrow=classic;html=1;rounded=0;" parent="ZJhizyH1urfS170YYKo7-5" edge="1">
          <mxGeometry width="50" height="50" relative="1" as="geometry">
            <mxPoint x="820" y="108" as="sourcePoint" />
            <mxPoint x="770" y="258" as="targetPoint" />
            <Array as="points">
              <mxPoint x="820" y="258" />
            </Array>
          </mxGeometry>
        </mxCell>
        <mxCell id="ZJhizyH1urfS170YYKo7-95" value="" style="endArrow=open;endSize=12;dashed=1;html=1;rounded=0;exitX=0.5;exitY=1;exitDx=0;exitDy=0;entryX=0.424;entryY=-0.002;entryDx=0;entryDy=0;entryPerimeter=0;" parent="ZJhizyH1urfS170YYKo7-5" source="ZJhizyH1urfS170YYKo7-90" target="ZJhizyH1urfS170YYKo7-55" edge="1">
          <mxGeometry width="160" relative="1" as="geometry">
            <mxPoint x="450" y="10" as="sourcePoint" />
            <mxPoint x="610" y="10" as="targetPoint" />
            <Array as="points">
              <mxPoint x="730" y="40" />
            </Array>
          </mxGeometry>
        </mxCell>
        <mxCell id="ZJhizyH1urfS170YYKo7-96" value="" style="endArrow=open;endSize=12;dashed=1;html=1;rounded=0;fillColor=#ffcccc;strokeColor=#36393d;" parent="1" edge="1">
          <mxGeometry width="160" relative="1" as="geometry">
            <mxPoint x="-110" y="1550" as="sourcePoint" />
            <mxPoint x="-570" y="1280" as="targetPoint" />
          </mxGeometry>
        </mxCell>
        <mxCell id="ZJhizyH1urfS170YYKo7-97" style="edgeStyle=orthogonalEdgeStyle;rounded=0;orthogonalLoop=1;jettySize=auto;html=1;entryX=0.75;entryY=1;entryDx=0;entryDy=0;" parent="1" target="ZJhizyH1urfS170YYKo7-99" edge="1">
          <mxGeometry relative="1" as="geometry">
            <mxPoint x="-660" y="800" as="targetPoint" />
            <mxPoint x="-565.9714285714285" y="960" as="sourcePoint" />
            <Array as="points">
              <mxPoint x="-566" y="820" />
              <mxPoint x="-610" y="820" />
            </Array>
          </mxGeometry>
        </mxCell>
        <mxCell id="ZJhizyH1urfS170YYKo7-103" value="theta raw" style="edgeLabel;html=1;align=center;verticalAlign=middle;resizable=0;points=[];" parent="ZJhizyH1urfS170YYKo7-97" vertex="1" connectable="0">
          <mxGeometry x="0.6627" y="-1" relative="1" as="geometry">
            <mxPoint x="21" as="offset" />
          </mxGeometry>
        </mxCell>
        <mxCell id="ZJhizyH1urfS170YYKo7-101" style="edgeStyle=orthogonalEdgeStyle;rounded=0;orthogonalLoop=1;jettySize=auto;html=1;entryX=0.5;entryY=1;entryDx=0;entryDy=0;" parent="1" target="ZJhizyH1urfS170YYKo7-99" edge="1">
          <mxGeometry relative="1" as="geometry">
            <mxPoint x="-581.9714285714285" y="960" as="sourcePoint" />
            <mxPoint x="-697" y="795" as="targetPoint" />
            <Array as="points">
              <mxPoint x="-582" y="830" />
              <mxPoint x="-640" y="830" />
            </Array>
          </mxGeometry>
        </mxCell>
        <mxCell id="ZJhizyH1urfS170YYKo7-104" value="Iu raw" style="edgeLabel;html=1;align=center;verticalAlign=middle;resizable=0;points=[];" parent="ZJhizyH1urfS170YYKo7-101" vertex="1" connectable="0">
          <mxGeometry x="0.6939" y="2" relative="1" as="geometry">
            <mxPoint x="2" as="offset" />
          </mxGeometry>
        </mxCell>
        <mxCell id="ZJhizyH1urfS170YYKo7-102" style="edgeStyle=orthogonalEdgeStyle;rounded=0;orthogonalLoop=1;jettySize=auto;html=1;entryX=0.25;entryY=1;entryDx=0;entryDy=0;" parent="1" target="ZJhizyH1urfS170YYKo7-99" edge="1">
          <mxGeometry relative="1" as="geometry">
            <mxPoint x="-610.9714285714285" y="960" as="sourcePoint" />
            <mxPoint x="-764.4000000000001" y="794.5350000000001" as="targetPoint" />
            <Array as="points">
              <mxPoint x="-611" y="850" />
              <mxPoint x="-670" y="850" />
            </Array>
          </mxGeometry>
        </mxCell>
        <mxCell id="ZJhizyH1urfS170YYKo7-105" value="Iv raw" style="edgeLabel;html=1;align=center;verticalAlign=middle;resizable=0;points=[];" parent="ZJhizyH1urfS170YYKo7-102" vertex="1" connectable="0">
          <mxGeometry x="0.3112" y="-1" relative="1" as="geometry">
            <mxPoint as="offset" />
          </mxGeometry>
        </mxCell>
        <mxCell id="h_LfdrFFlOwhUh25yJzW-14" style="edgeStyle=orthogonalEdgeStyle;rounded=0;orthogonalLoop=1;jettySize=auto;html=1;" edge="1" parent="1" source="h_LfdrFFlOwhUh25yJzW-13" target="h_LfdrFFlOwhUh25yJzW-8">
          <mxGeometry relative="1" as="geometry" />
        </mxCell>
        <mxCell id="h_LfdrFFlOwhUh25yJzW-13" value="Input - Speed" style="whiteSpace=wrap;html=1;" vertex="1" parent="1">
          <mxGeometry x="-1020" y="30" width="120" height="60" as="geometry" />
        </mxCell>
      </root>
    </mxGraphModel>
  </diagram>
</mxfile>
